# xmcd
#
# Track frame offsets:
#	150
#	17684
#	33887
#	50509
#	71771
#	95568
#
# Disc length: 1613 seconds
#
# Revision: 0
# Processed by: cddbd v1.5.2PL0 Copyright (c) Steve Scherf et al.
# Submitted via: EZCDAudioConverter 3.0.3.2
#
DISCID=48064b06
DTITLE=Paula Fernandes - Um Ser Amor
DYEAR=2013
DGENRE=Sertanejo
TTITLE0=Nunca mais eu e voce
TTITLE1=Navegar em mim
TTITLE2=Sensações
TTITLE3=Jeito de Mato
TTITLE4=feat Taylor swift Long Live
TTITLE5=I´m Gonna getcha good
EXTD=
EXTT0=
EXTT1=
EXTT2=
EXTT3=
EXTT4=
EXTT5=
PLAYORDER=
